<svg width="24" height="24" viewBox="0 0 24 24" fill="none" xmlns="http://www.w3.org/2000/svg">
<path fill-rule="evenodd" clip-rule="evenodd" d="M11.9992 0C5.373 0 0 5.39381 0 12.0482C0 17.3702 3.438 21.8857 8.20725 23.4791C8.80725 23.5916 9.02625 23.2178 9.02625 22.8986L9.00975 20.8498C5.6715 21.5779 4.96725 19.2347 4.96725 19.2347C4.422 17.8434 3.63525 17.4728 3.63525 17.4728C2.5455 16.725 3.71775 16.7402 3.71775 16.7402C4.9215 16.8253 5.55525 17.9818 5.55525 17.9818C6.62625 19.8231 8.364 19.2913 9.048 18.9825C9.15675 18.204 9.46725 17.673 9.81 17.37C7.14525 17.0659 4.344 16.0328 4.344 11.4163C4.344 10.1008 4.81125 9.02569 5.57925 8.18306C5.4555 7.87819 5.04375 6.65381 5.69625 4.995C5.69625 4.995 6.70425 4.67119 8.99625 6.22987C9.954 5.9625 10.98 5.82938 12.0007 5.82394C13.02 5.82919 14.0468 5.96269 15.0052 6.22987C17.2957 4.67119 18.3015 4.995 18.3015 4.995C18.9563 6.65381 18.5445 7.87819 18.4207 8.18306C19.1903 9.02569 19.6545 10.1008 19.6545 11.4163C19.6545 16.0438 16.8487 17.0629 14.1757 17.361C14.6062 17.733 14.9902 18.4678 14.9902 19.5922L14.9752 22.8971C14.9752 23.2196 15.1912 23.5946 15.8002 23.4761C20.565 21.8814 24 17.3689 24 12.0482C24 5.39381 18.627 0 11.9992 0Z" fill="#3E75C3"/>
</svg>
