<svg width="17" height="21" viewBox="0 0 17 21" fill="none" xmlns="http://www.w3.org/2000/svg">
<path fill-rule="evenodd" clip-rule="evenodd" d="M13.6365 9.80625L8.253 1.97587L6.56662 3.11587L11.9505 10.944L13.6367 9.804L13.6365 9.80625ZM11.6184 11.2237L3.38812 6.40819L2.35087 8.15062L10.5817 12.9645L11.6186 11.2217L11.6184 11.2237ZM10.4137 13.5384L1.1865 11.0769L0.655875 13.0312L9.88406 15.4912L10.4137 13.5367V13.5384ZM9.78619 16.1775L0.2715 15.3081L0.084 17.3237L9.59906 18.1922L9.78619 16.1775ZM16.0134 9.33375L14.379 0L12.3677 0.345937L14.0021 9.68156L16.0134 9.33562V9.33375ZM9.5565 20.7962L0.000750303 20.8007L0 18.777L9.55537 18.7721L9.5565 20.7962Z" fill="#FF810F"/>
</svg>
