<svg width="24" height="20" viewBox="0 0 24 20" fill="none" xmlns="http://www.w3.org/2000/svg">
<path fill-rule="evenodd" clip-rule="evenodd" d="M24 2.36756C23.1038 2.77559 22.1502 3.04353 21.1727 3.162C22.1897 2.538 22.9702 1.54837 23.3379 0.36975C22.3854 0.947625 21.3335 1.368 20.2091 1.59338C19.3132 0.61275 18.0326 0 16.6155 0C13.898 0 11.6936 2.26069 11.6936 5.04881C11.6936 5.44444 11.7358 5.82881 11.8204 6.19875C7.72818 5.98744 4.10061 3.97969 1.66874 0.921562C1.24499 1.66969 1.00236 2.53781 1.00236 3.46256C1.00236 5.21344 1.87161 6.75881 3.19292 7.66481C2.38724 7.64044 1.62636 7.41056 0.961675 7.03481V7.09669C0.961675 9.54356 2.65911 11.5849 4.91305 12.0472C4.50055 12.1657 4.06499 12.225 3.61555 12.225C3.30437 12.2253 2.9939 12.1953 2.68855 12.1354C3.31536 14.1405 5.13261 15.6009 7.28792 15.6397C5.60305 16.9948 3.47886 17.8022 1.1728 17.8022C0.7753 17.8022 0.382487 17.7791 -0.0020752 17.7328C2.17724 19.1629 4.76643 19.9993 7.54574 19.9993C16.6039 19.9993 21.5552 12.3069 21.5552 5.63456C21.5552 5.41637 21.5509 5.19821 21.5424 4.98019C22.505 4.26806 23.3405 3.37969 23.9983 2.367" fill="#00AAEC"/>
</svg>
